<svg xmlns="http://www.w3.org/2000/svg" viewBox="0 0 430.05 347.45"><defs><style>.cls-1{fill:#fff;}</style></defs><title>Asset 1</title><g id="Layer_2" data-name="Layer 2"><g id="Capa_1" data-name="Capa 1"><path class="cls-1" d="M130.4,230c0-4-4.82-4.34-4.82-7.56,0-1.27.5-2,1.64-2s1.64.76,1.64,2v.47h1.52v-.39c0-2.17-1-3.58-3.2-3.58S124,220.29,124,222.5c0,4,4.79,4.35,4.79,7.55,0,1.29-.53,2-1.68,2s-1.68-.76-1.68-2v-.91h-1.5V230c0,2.18,1,3.59,3.22,3.59S130.4,232.14,130.4,230Z"/><path class="cls-1" d="M143.43,233.41H145l-2.75-14.35H140l-2.75,14.35h1.48l.55-2.89h3.63Zm-4-4.27,1.57-8.28,1.62,8.28Z"/><polygon class="cls-1" points="157.82 231.95 153.72 231.95 153.72 219.06 152.12 219.06 152.12 233.41 157.82 233.41 157.82 231.95"/><path class="cls-1" d="M171.32,229.94v-7.42c0-2.19-1.09-3.6-3.3-3.6s-3.28,1.41-3.28,3.6v7.42c0,2.18,1.09,3.61,3.28,3.61S171.32,232.12,171.32,229.94Zm-1.6.09c0,1.31-.53,2.07-1.7,2.07s-1.7-.76-1.7-2.07v-7.59c0-1.29.55-2.07,1.7-2.07s1.7.78,1.7,2.07Z"/><polygon class="cls-1" points="170.05 216.09 168.47 216.09 167.03 218.2 168.14 218.2 170.05 216.09"/><polygon class="cls-1" points="184 229.43 180.68 219.06 178.65 219.06 178.65 233.41 180.09 233.41 180.09 221.81 183.76 233.41 185.42 233.41 185.42 219.06 184 219.06 184 229.43"/><rect class="cls-1" x="192.83" y="225.52" width="3.92" height="1.43"/><path class="cls-1" d="M210.5,222.91v-.67c0-2.12-.88-3.18-3.12-3.18h-3.22v14.35h3.3c2.24,0,3.28-1.21,3.28-3.36v-1.21c0-1.58-.53-2.69-1.92-3.08C210.07,225.37,210.5,224.43,210.5,222.91Zm-1.34,5.82V230c0,1.33-.53,1.94-1.7,1.94h-1.7V226.6h1.4C208.53,226.6,209.16,227.14,209.16,228.73Zm-.24-5.49c0,1.5-.66,1.91-1.93,1.91h-1.23v-4.64h1.58c1.15,0,1.58.62,1.58,1.89Z"/><path class="cls-1" d="M222.69,219.06h-2.32l-2.75,14.35h1.48l.55-2.89h3.63l.56,2.89h1.59Zm-2.83,10.08,1.58-8.28,1.62,8.28Z"/><path class="cls-1" d="M238.92,223.51v-1.17c0-2.13-.95-3.28-3.2-3.28h-3.2v14.35h1.6v-6.13h1.13c1.33,0,2.09.51,2.09,2.13v2.26a3.67,3.67,0,0,0,.27,1.74h1.61a3.67,3.67,0,0,1-.28-1.72v-2.24c0-1.54-.49-2.6-1.81-3C238.36,226.07,238.92,225.08,238.92,223.51Zm-1.58.35c0,1.55-.76,2-2,2h-1.19v-5.31h1.56c1.19,0,1.66.68,1.66,2Z"/><path class="cls-1" d="M252.77,222.91v-.67c0-2.12-.88-3.18-3.12-3.18h-3.22v14.35h3.3c2.24,0,3.28-1.21,3.28-3.36v-1.21c0-1.58-.53-2.69-1.92-3.08C252.34,225.37,252.77,224.43,252.77,222.91Zm-1.33,5.82V230c0,1.33-.54,1.94-1.71,1.94H248V226.6h1.4C250.8,226.6,251.44,227.14,251.44,228.73Zm-.25-5.49c0,1.5-.66,1.91-1.93,1.91H248v-4.64h1.58c1.15,0,1.58.62,1.58,1.89Z"/><polygon class="cls-1" points="260.31 233.41 266.21 233.41 266.21 231.95 261.9 231.95 261.9 226.85 265.41 226.85 265.41 225.41 261.9 225.41 261.9 220.51 266.21 220.51 266.21 219.06 260.31 219.06 260.31 233.41"/><path class="cls-1" d="M279.92,223.51v-1.17c0-2.13-.95-3.28-3.2-3.28h-3.2v14.35h1.6v-6.13h1.13c1.33,0,2.09.51,2.09,2.13v2.26a3.84,3.84,0,0,0,.26,1.74h1.62a3.67,3.67,0,0,1-.28-1.72v-2.24c0-1.54-.49-2.6-1.81-3C279.36,226.07,279.92,225.08,279.92,223.51Zm-1.58.35c0,1.55-.76,2-2,2h-1.19v-5.31h1.56c1.19,0,1.66.68,1.66,2Z"/><polygon class="cls-1" points="287.25 218.26 288.36 218.26 290.26 216.15 288.66 216.15 287.25 218.26"/><rect class="cls-1" x="287.43" y="219.06" width="1.6" height="14.35"/><path class="cls-1" d="M301.16,219.06h-2.31l-2.75,14.35h1.48l.55-2.89h3.63l.55,2.89h1.6Zm-2.82,10.08,1.57-8.28,1.62,8.28Z"/><path class="cls-1" d="M325.83,301.42a170.61,170.61,0,0,1-208.68,7.51A173.94,173.94,0,0,1,77.4,269.14a176.22,176.22,0,0,1-25.25-50.75A163.46,163.46,0,0,0,74.75,271a170.14,170.14,0,0,0,90.79,68.66,171.45,171.45,0,0,0,114.23-4.14,170.2,170.2,0,0,0,85.63-75,163.78,163.78,0,0,0,18.75-54.06,176.43,176.43,0,0,1-21.51,52.45A173.52,173.52,0,0,1,325.83,301.42Z"/><path class="cls-1" d="M137.35,25.63A173.29,173.29,0,0,1,237.94,7.77a169.52,169.52,0,0,1,49.63,14.15,173.48,173.48,0,0,1,76.21,68.57,179.41,179.41,0,0,1,20,48.41,163.9,163.9,0,0,0-17.17-50,166.28,166.28,0,0,0-32.34-42.28,170.64,170.64,0,0,0-44-30.31,173.55,173.55,0,0,0-51.43-15A158.39,158.39,0,0,0,211.92.15l-6.71.26c-1.12,0-2.23.17-3.35.29l-3.34.37-6.68.74c-2.21.37-4.4.82-6.61,1.23a170.56,170.56,0,0,0-50.29,18.12A168.08,168.08,0,0,0,63.85,98.1,178.94,178.94,0,0,1,137.35,25.63Z"/><path class="cls-1" d="M93.72,269.51a1.65,1.65,0,0,0,1,2.94,1.68,1.68,0,0,0,1-.36,1.65,1.65,0,0,0-2.06-2.58Z"/><path class="cls-1" d="M346.47,261.92a1.64,1.64,0,1,0-.92-.27A1.68,1.68,0,0,0,346.47,261.92Z"/><path class="cls-1" d="M364.09,219.6a1.65,1.65,0,1,0,2.08-1.09A1.66,1.66,0,0,0,364.09,219.6Z"/><path class="cls-1" d="M362.1,225.59a1.66,1.66,0,0,0,1,2.11,1.56,1.56,0,0,0,.55.1,1.65,1.65,0,0,0,.56-3.2A1.63,1.63,0,0,0,362.1,225.59Z"/><path class="cls-1" d="M369.32,206.14a1.65,1.65,0,0,0-.71,3.22,1.47,1.47,0,0,0,.36,0,1.66,1.66,0,0,0,1.61-1.29h0A1.64,1.64,0,0,0,369.32,206.14Z"/><path class="cls-1" d="M365.86,213.52a1.64,1.64,0,0,0,1.17,2,1.93,1.93,0,0,0,.42.06,1.65,1.65,0,1,0-1.59-2.08Z"/><path class="cls-1" d="M350.76,253.49a1.65,1.65,0,1,0-1.72,2.82,1.74,1.74,0,0,0,.86.23,1.64,1.64,0,0,0,.86-3.05Z"/><path class="cls-1" d="M103.09,282.08a1.64,1.64,0,0,0,1.2-2.78,1.65,1.65,0,1,0-1.2,2.78Z"/><path class="cls-1" d="M353.92,247.94a1.65,1.65,0,1,0,.64,2.25A1.65,1.65,0,0,0,353.92,247.94Z"/><path class="cls-1" d="M357.36,237.3a1.64,1.64,0,0,0,.82,2.19,1.85,1.85,0,0,0,.68.15,1.65,1.65,0,1,0-1.5-2.34Z"/><path class="cls-1" d="M359.85,231.5a1.64,1.64,0,0,0,.92,2.14,1.3,1.3,0,0,0,.61.14,1.66,1.66,0,0,0,1.53-1.05,1.65,1.65,0,1,0-3.06-1.23Z"/><path class="cls-1" d="M354.63,243a1.65,1.65,0,0,0,.73,2.21,1.69,1.69,0,0,0,.74.17,1.65,1.65,0,0,0,.75-3.12A1.67,1.67,0,0,0,354.63,243Z"/><path class="cls-1" d="M172.48,325a1.83,1.83,0,0,0,.46.07,1.65,1.65,0,0,0,.46-3.24h0a1.65,1.65,0,0,0-.93,3.17Z"/><path class="cls-1" d="M179.09,326.7a1.65,1.65,0,0,0,.41-3.26,1.65,1.65,0,1,0-.8,3.2v0A2.58,2.58,0,0,0,179.09,326.7Z"/><path class="cls-1" d="M344.15,266.48a1.67,1.67,0,0,0-.36-2.31,1.66,1.66,0,0,0-2,2.68,1.8,1.8,0,0,0,1,.31A1.68,1.68,0,0,0,344.15,266.48Z"/><path class="cls-1" d="M97.57,276.78a1.64,1.64,0,0,0,1.25.58,1.7,1.7,0,0,0,1.09-.41,1.65,1.65,0,1,0-2.34-.17Z"/><path class="cls-1" d="M167.38,319.89a1.66,1.66,0,0,0-1.06,3.14,1.58,1.58,0,0,0,.52.09,1.64,1.64,0,0,0,1.57-1.13A1.67,1.67,0,0,0,167.38,319.89Z"/><path class="cls-1" d="M183.7,326.12a1.66,1.66,0,0,0,1.28,1.95,2,2,0,0,0,.34,0,1.65,1.65,0,0,0,.33-3.27h0A1.65,1.65,0,0,0,183.7,326.12Z"/><path class="cls-1" d="M190,327.33a1.66,1.66,0,0,0,1.37,1.9l.27,0a1.65,1.65,0,1,0-1.64-1.92Z"/><path class="cls-1" d="M223.43,331.13h0Z"/><path class="cls-1" d="M225,329.42a1.65,1.65,0,1,0-3.3.13,1.65,1.65,0,0,0,3.3-.13Z"/><path class="cls-1" d="M209,329.44a1.67,1.67,0,0,0,1.59,1.72h.07a1.65,1.65,0,1,0-1.66-1.72Z"/><path class="cls-1" d="M215.33,329.63A1.66,1.66,0,1,0,217,328,1.66,1.66,0,0,0,215.33,329.63Z"/><path class="cls-1" d="M202.59,329a1.68,1.68,0,0,0,1.52,1.79h.13a1.65,1.65,0,0,0,.13-3.3A1.67,1.67,0,0,0,202.59,329Z"/><path class="cls-1" d="M197.7,330.14h.2a1.65,1.65,0,0,0,1.64-1.45,1.67,1.67,0,0,0-1.44-1.84,1.66,1.66,0,0,0-1.84,1.45A1.67,1.67,0,0,0,197.7,330.14Z"/><path class="cls-1" d="M122,299.19a1.68,1.68,0,1,0-1-.36v0A1.67,1.67,0,0,0,122,299.19Z"/><path class="cls-1" d="M115.73,292.49a1.65,1.65,0,1,0,2.34-.21A1.66,1.66,0,0,0,115.73,292.49Z"/><path class="cls-1" d="M125.78,300.36a1.64,1.64,0,0,0,.4,2.3,1.72,1.72,0,0,0,.95.3,1.68,1.68,0,0,0,1.36-.71,1.65,1.65,0,0,0-2.71-1.89Z"/><path class="cls-1" d="M111,288.26a1.64,1.64,0,0,0,1.23,2.75,1.69,1.69,0,0,0,1.23-.53,1.66,1.66,0,0,0-2.46-2.22Z"/><path class="cls-1" d="M106.37,283.83a1.65,1.65,0,0,0,1.17,2.81,1.69,1.69,0,0,0,1.19-.48,1.66,1.66,0,0,0-2.36-2.33Z"/><path class="cls-1" d="M137.85,309.87a1.65,1.65,0,0,0,.85-3.07,1.65,1.65,0,0,0-1.68,2.84h0A1.67,1.67,0,0,0,137.85,309.87Z"/><path class="cls-1" d="M131,304a1.65,1.65,0,0,0,.5,2.28,1.7,1.7,0,0,0,.89.26,1.65,1.65,0,0,0,.9-3A1.66,1.66,0,0,0,131,304Z"/><path class="cls-1" d="M147.63,313.51a1.63,1.63,0,0,0,.77,2.2,1.54,1.54,0,0,0,.71.17,1.65,1.65,0,1,0-1.48-2.37Z"/><path class="cls-1" d="M153.41,316.22a1.66,1.66,0,0,0,.86,2.18,1.49,1.49,0,0,0,.65.14,1.66,1.66,0,1,0-1.51-2.32Z"/><path class="cls-1" d="M142.65,312.79a1.63,1.63,0,0,0,2.23-.68,1.65,1.65,0,1,0-2.23.68Z"/><path class="cls-1" d="M159.3,318.7a1.64,1.64,0,0,0,.94,2.13,1.57,1.57,0,0,0,.6.12,1.65,1.65,0,0,0,1.54-1.06,1.65,1.65,0,1,0-3.08-1.19Z"/><path class="cls-1" d="M272.46,317.62a1.65,1.65,0,0,0,.6,3.19,1.51,1.51,0,0,0,.58-.12,1.64,1.64,0,1,0-1.18-3.07Z"/><path class="cls-1" d="M77.57,245.71a1.75,1.75,0,0,0,.74-.18,1.66,1.66,0,0,0-1.49-3,1.64,1.64,0,0,0-.73,2.22A1.67,1.67,0,0,0,77.57,245.71Z"/><path class="cls-1" d="M83.78,256.82a1.61,1.61,0,0,0,.86-.25,1.65,1.65,0,0,0,.54-2.27A1.65,1.65,0,0,0,82.37,256,1.65,1.65,0,0,0,83.78,256.82Z"/><path class="cls-1" d="M229.85,330.74a1.66,1.66,0,1,0-.27-3.3h0a1.65,1.65,0,0,0,.14,3.29Z"/><path class="cls-1" d="M80.56,251.32a1.61,1.61,0,0,0,.81-.21,1.65,1.65,0,1,0-.81.21Z"/><path class="cls-1" d="M235.86,326.8a1.65,1.65,0,0,0,.19,3.29h.21a1.65,1.65,0,1,0-.4-3.28Z"/><path class="cls-1" d="M265.51,321.86a1.65,1.65,0,0,0,1.57,1.11,2,2,0,0,0,.53-.07,1.66,1.66,0,1,0-2.1-1Z"/><path class="cls-1" d="M256.45,324.54a1.65,1.65,0,1,0-1.6,2,1.44,1.44,0,0,0,.41,0h0A1.64,1.64,0,0,0,256.45,324.54Z"/><path class="cls-1" d="M248.3,324.75a1.65,1.65,0,0,0,.34,3.26,1.24,1.24,0,0,0,.33,0,1.64,1.64,0,1,0-.67-3.22Z"/><path class="cls-1" d="M242.64,329.16a1.65,1.65,0,0,0-.54-3.26,1.66,1.66,0,0,0,.26,3.29Z"/><path class="cls-1" d="M89.91,264.4a1.65,1.65,0,0,0,1,3,1.59,1.59,0,0,0,1-.32,1.65,1.65,0,0,0,.37-2.3h0A1.67,1.67,0,0,0,89.91,264.4Z"/><path class="cls-1" d="M86.3,259.16a1.64,1.64,0,0,0,.92,3,1.72,1.72,0,0,0,.92-.27,1.65,1.65,0,1,0-1.84-2.74Z"/><path class="cls-1" d="M259.41,323.73a1.66,1.66,0,0,0,1.58,1.19,1.5,1.5,0,0,0,.47-.08,1.64,1.64,0,0,0,1.12-2,1.65,1.65,0,1,0-3.17.94Z"/><path class="cls-1" d="M340.24,271.61a1.65,1.65,0,0,0-2.58-2.06,1.63,1.63,0,0,0,.26,2.32,1.59,1.59,0,0,0,1,.37A1.65,1.65,0,0,0,340.24,271.61Z"/><path class="cls-1" d="M66.2,216a1.63,1.63,0,0,0,.43-.05,1.7,1.7,0,1,0-.43.05Z"/><path class="cls-1" d="M74.81,240a1.84,1.84,0,0,0,.68-.14,1.68,1.68,0,1,0-.68.14Z"/><path class="cls-1" d="M72.29,234.13a1.53,1.53,0,0,0,.62-.13,1.67,1.67,0,0,0,.91-2.16v0a1.66,1.66,0,1,0-1.53,2.27Z"/><path class="cls-1" d="M66.27,207.83a1.65,1.65,0,1,0-1.62,2,1.59,1.59,0,0,0,.37-.06A1.64,1.64,0,0,0,66.27,207.83Z"/><path class="cls-1" d="M70,228.19a1.59,1.59,0,0,0,.56-.11,1.63,1.63,0,0,0,1-2.1A1.65,1.65,0,1,0,70,228.19Z"/><path class="cls-1" d="M68,222.15A1.65,1.65,0,1,0,66.4,221,1.66,1.66,0,0,0,68,222.15Z"/><path class="cls-1" d="M278.28,315.22a1.65,1.65,0,0,0,.65,3.17,1.83,1.83,0,0,0,.67-.14,1.65,1.65,0,1,0-1.32-3Z"/><path class="cls-1" d="M322.64,290.4a1.65,1.65,0,1,0-2.22-2.44,1.66,1.66,0,0,0-.12,2.33,1.68,1.68,0,0,0,1.23.54A1.63,1.63,0,0,0,322.64,290.4Z"/><path class="cls-1" d="M311.77,299a1.55,1.55,0,0,0,1-.34,1.65,1.65,0,1,0-1,.34Z"/><path class="cls-1" d="M327.33,286a1.65,1.65,0,1,0-2.34,0,1.66,1.66,0,0,0,1.18.5A1.62,1.62,0,0,0,327.33,286Z"/><path class="cls-1" d="M284.73,315.73a1.54,1.54,0,0,0,.71-.17,1.64,1.64,0,1,0-.71.17Z"/><path class="cls-1" d="M317.79,294.63a1.65,1.65,0,1,0-2.33-.2,1.69,1.69,0,0,0,1.27.59A1.64,1.64,0,0,0,317.79,294.63Z"/><path class="cls-1" d="M290.39,312.83a1.75,1.75,0,0,0,.79-.2,1.67,1.67,0,1,0-.79.2Z"/><path class="cls-1" d="M300.46,303.32a1.64,1.64,0,0,0,.9,3,1.65,1.65,0,1,0-.9-3Z"/><path class="cls-1" d="M336.13,276.57a1.65,1.65,0,1,0-2.33.17,1.62,1.62,0,0,0,1.08.41A1.64,1.64,0,0,0,336.13,276.57Z"/><path class="cls-1" d="M306.64,302.79a1.77,1.77,0,0,0,.95-.3,1.66,1.66,0,0,0,.39-2.3,1.63,1.63,0,0,0-2.3-.4,1.66,1.66,0,0,0-.4,2.31A1.68,1.68,0,0,0,306.64,302.79Z"/><path class="cls-1" d="M331.82,281.36a1.64,1.64,0,1,0-2.32.08,1.6,1.6,0,0,0,1.12.45A1.57,1.57,0,0,0,331.82,281.36Z"/><path class="cls-1" d="M295.09,306.64a1.65,1.65,0,0,0,.85,3.07,1.65,1.65,0,1,0-.85-3.07Z"/><path class="cls-1" d="M265.93,25.65a1.65,1.65,0,0,0,1,2.1,1.53,1.53,0,0,0,.54.09,1.66,1.66,0,0,0,1.57-1.11,1.65,1.65,0,0,0-3.12-1.08Z"/><path class="cls-1" d="M370.3,147.93l.28,0a1.69,1.69,0,1,0-.28,0Z"/><path class="cls-1" d="M369.06,141.68a2.21,2.21,0,0,0,.35,0,1.65,1.65,0,1,0-.35,0Z"/><path class="cls-1" d="M368,135.42a1.62,1.62,0,1,0-.41.06A1.45,1.45,0,0,0,368,135.42Z"/><path class="cls-1" d="M100.27,70a1.65,1.65,0,0,0-2.33.16,1.65,1.65,0,0,0,1.25,2.74,1.64,1.64,0,0,0,1.24-.57h0A1.66,1.66,0,0,0,100.27,70Z"/><path class="cls-1" d="M255.65,20.94a1.65,1.65,0,0,0-2,1.2,1.67,1.67,0,0,0,1.19,2,3.19,3.19,0,0,0,.42.05,1.66,1.66,0,0,0,.4-3.26Z"/><path class="cls-1" d="M332.13,68.77a1.65,1.65,0,1,0-2.24-2.41A1.65,1.65,0,0,0,331,69.22,1.6,1.6,0,0,0,332.13,68.77Z"/><path class="cls-1" d="M365.81,129.35a1.38,1.38,0,0,0,.48-.08,1.65,1.65,0,0,0,1.1-2.06,1.67,1.67,0,0,0-2.08-1.09,1.65,1.65,0,0,0,.5,3.23Z"/><path class="cls-1" d="M363.8,123.29a1.6,1.6,0,0,0,.56-.09,1.68,1.68,0,1,0-.56.09Z"/><path class="cls-1" d="M272,27.79a1.63,1.63,0,0,0,.94,2.14,1.53,1.53,0,0,0,.6.12A1.66,1.66,0,1,0,272,27.79Z"/><path class="cls-1" d="M345.86,86.19a1.66,1.66,0,0,0-.46,2.3v0a1.64,1.64,0,0,0,1.38.75,1.55,1.55,0,0,0,.9-.28,1.65,1.65,0,1,0-1.82-2.75Z"/><path class="cls-1" d="M196.66,19a1.69,1.69,0,0,0,1.65,1.46h.19a1.65,1.65,0,1,0-.39-3.28h0A1.68,1.68,0,0,0,196.66,19Z"/><path class="cls-1" d="M190.36,20a1.65,1.65,0,0,0,1.63,1.4,2.06,2.06,0,0,0,.26,0A1.65,1.65,0,1,0,190.36,20Z"/><path class="cls-1" d="M230,20h.13a1.65,1.65,0,1,0-1.65-1.79A1.66,1.66,0,0,0,230,20Z"/><path class="cls-1" d="M247.43,20.77a1.63,1.63,0,0,0,1.28,1.94,1.24,1.24,0,0,0,.33,0,1.66,1.66,0,0,0,1.62-1.31,1.65,1.65,0,1,0-3.23-.67Z"/><path class="cls-1" d="M338.28,76a1.65,1.65,0,0,0-.27,2.33,1.68,1.68,0,0,0,1.29.62,1.65,1.65,0,1,0-1-3Z"/><path class="cls-1" d="M283.7,32.8a1.64,1.64,0,0,0,.75,2.21,1.61,1.61,0,0,0,.72.17,1.65,1.65,0,0,0,.73-3.13A1.63,1.63,0,0,0,283.7,32.8Z"/><path class="cls-1" d="M217.4,16.1a1.67,1.67,0,0,0-1.66,1.65,1.65,1.65,0,0,0,1.64,1.66h0a1.66,1.66,0,0,0,0-3.31Z"/><path class="cls-1" d="M203,18.35a1.63,1.63,0,0,0,1.64,1.51h.14a1.64,1.64,0,0,0,1.51-1.77,1.66,1.66,0,0,0-1.78-1.52A1.64,1.64,0,0,0,203,18.35Z"/><path class="cls-1" d="M223.69,19.56h.08a1.61,1.61,0,1,0-.08,0Z"/><path class="cls-1" d="M236.47,20.65a1.65,1.65,0,0,0,1.63-1.45,1.62,1.62,0,0,0-1.42-1.84,1.64,1.64,0,1,0-.42,3.26v0Z"/><path class="cls-1" d="M336.51,71.25A1.65,1.65,0,0,0,334,73.39a1.62,1.62,0,0,0,1.25.59,1.65,1.65,0,0,0,1.26-2.73Z"/><path class="cls-1" d="M305.75,45.61a1.63,1.63,0,0,0,.38,2.3h0a1.59,1.59,0,0,0,.95.31,1.71,1.71,0,0,0,1.35-.69,1.67,1.67,0,0,0-.39-2.31A1.64,1.64,0,0,0,305.75,45.61Z"/><path class="cls-1" d="M289.4,35.66a1.66,1.66,0,0,0,.67,2.25,1.69,1.69,0,0,0,.78.19,1.65,1.65,0,0,0,.78-3.1A1.64,1.64,0,0,0,289.4,35.66Z"/><path class="cls-1" d="M342.17,81a1.65,1.65,0,0,0-.36,2.31,1.61,1.61,0,0,0,1.34.68,1.69,1.69,0,0,0,1-.31A1.66,1.66,0,1,0,342.17,81Z"/><path class="cls-1" d="M277.87,30.18a1.66,1.66,0,0,0,.85,2.17,1.49,1.49,0,0,0,.65.14,1.65,1.65,0,1,0-1.5-2.31Z"/><path class="cls-1" d="M310.9,49.36a1.65,1.65,0,0,0,.3,2.32,1.62,1.62,0,0,0,1,.34,1.65,1.65,0,0,0,1.31-.64,1.63,1.63,0,0,0-.3-2.31h0A1.67,1.67,0,0,0,310.9,49.36Z"/><path class="cls-1" d="M356.34,105.75a1.66,1.66,0,1,0-1.48-.92A1.66,1.66,0,0,0,356.34,105.75Z"/><path class="cls-1" d="M353.38,100.11a1.61,1.61,0,0,0,.79-.21,1.65,1.65,0,1,0-2.24-.64A1.68,1.68,0,0,0,353.38,100.11Z"/><path class="cls-1" d="M359.07,111.49a1.63,1.63,0,0,0,1.5-2.32,1.64,1.64,0,0,0-2.18-.84,1.65,1.65,0,0,0,.68,3.16Z"/><path class="cls-1" d="M300.43,42.07a1.66,1.66,0,0,0,.49,2.29,1.61,1.61,0,0,0,.9.27,1.65,1.65,0,1,0-1.39-2.56Z"/><path class="cls-1" d="M241.15,19.64a1.65,1.65,0,0,0,1.35,1.91h.28a1.65,1.65,0,0,0,1.63-1.37,1.68,1.68,0,0,0-1.36-1.91A1.65,1.65,0,0,0,241.15,19.64Z"/><path class="cls-1" d="M349.33,91.53A1.65,1.65,0,1,0,351,94.36a1.65,1.65,0,0,0-1.71-2.83Z"/><path class="cls-1" d="M122.43,51.17a1.63,1.63,0,0,0,1-.34,1.66,1.66,0,1,0-1,.34Z"/><path class="cls-1" d="M132.87,43.87a1.65,1.65,0,1,0-.88-3,1.65,1.65,0,0,0,.88,3Z"/><path class="cls-1" d="M127.57,47.41a1.58,1.58,0,0,0,1-.3,1.65,1.65,0,1,0-2.29-.4A1.63,1.63,0,0,0,127.57,47.41Z"/><path class="cls-1" d="M149.57,34.59a1.58,1.58,0,0,0,.72-.17,1.65,1.65,0,0,0-1.44-3,1.66,1.66,0,0,0,.72,3.15Z"/><path class="cls-1" d="M143.88,37.45a1.65,1.65,0,1,0-1.46-.87A1.65,1.65,0,0,0,143.88,37.45Z"/><path class="cls-1" d="M139.74,38.06a1.67,1.67,0,0,0-2.26-.6v0a1.65,1.65,0,1,0,1.67,2.84h0A1.64,1.64,0,0,0,139.74,38.06Z"/><path class="cls-1" d="M113.71,58.86a1.64,1.64,0,0,0,.13-2.32,1.66,1.66,0,1,0-1.23,2.75A1.63,1.63,0,0,0,113.71,58.86Z"/><path class="cls-1" d="M118.48,54.75a1.65,1.65,0,1,0-2.32-.22,1.68,1.68,0,0,0,1.28.6A1.57,1.57,0,0,0,118.48,54.75Z"/><path class="cls-1" d="M109.1,63.18a1.65,1.65,0,1,0-2.34,0,1.68,1.68,0,0,0,1.19.5A1.6,1.6,0,0,0,109.1,63.18Z"/><path class="cls-1" d="M323.09,57.37a1.66,1.66,0,0,0-2.34.11,1.64,1.64,0,0,0,.1,2.34v0a1.61,1.61,0,0,0,1.11.45,1.7,1.7,0,0,0,1.23-.54A1.68,1.68,0,0,0,323.09,57.37Z"/><path class="cls-1" d="M102.27,65.4a1.66,1.66,0,0,0,.06,2.34,1.7,1.7,0,0,0,1.14.45,1.65,1.65,0,1,0-1.2-2.79Z"/><path class="cls-1" d="M161.28,29.57a1.76,1.76,0,0,0,.59-.11,1.66,1.66,0,0,0-1.19-3.09h0a1.64,1.64,0,0,0-1,2.13A1.68,1.68,0,0,0,161.28,29.57Z"/><path class="cls-1" d="M86.16,85.48a1.65,1.65,0,0,0,.43,2.3,1.62,1.62,0,0,0,.93.29,1.66,1.66,0,0,0,.92-3A1.64,1.64,0,0,0,86.16,85.48Z"/><path class="cls-1" d="M89.88,80.22h0a1.66,1.66,0,0,0,.35,2.31,1.59,1.59,0,0,0,1,.33,1.66,1.66,0,1,0-1.32-2.64Z"/><path class="cls-1" d="M81.62,95.83A1.65,1.65,0,1,0,80,98.7a1.7,1.7,0,0,0,.81.22,1.67,1.67,0,0,0,1.44-.85A1.64,1.64,0,0,0,81.62,95.83Z"/><path class="cls-1" d="M83.18,93.17a1.66,1.66,0,0,0,.88.25,1.62,1.62,0,0,0,1.39-.78h0a1.66,1.66,0,0,0-.55-2.27,1.65,1.65,0,1,0-1.74,2.8Z"/><path class="cls-1" d="M209.37,17.92A1.65,1.65,0,0,0,211,19.51h.05a1.65,1.65,0,1,0-1.71-1.59Z"/><path class="cls-1" d="M327.76,64.15a1.67,1.67,0,0,0,0-2.34,1.65,1.65,0,0,0-2.33,2.35,1.62,1.62,0,0,0,1.17.47A1.65,1.65,0,0,0,327.76,64.15Z"/><path class="cls-1" d="M185.72,22.5a1.29,1.29,0,0,0,.33,0,1.65,1.65,0,0,0,1.29-1.94,1.65,1.65,0,0,0-3.24.65A1.66,1.66,0,0,0,185.72,22.5Z"/><path class="cls-1" d="M167.27,27.42a1.41,1.41,0,0,0,.53-.09,1.65,1.65,0,0,0-1.05-3.13h0a1.65,1.65,0,0,0,.52,3.21Z"/><path class="cls-1" d="M155.37,32a1.48,1.48,0,0,0,.65-.13,1.66,1.66,0,0,0,.88-2.16,1.69,1.69,0,0,0-2.19-.88,1.66,1.66,0,0,0-.86,2.17A1.64,1.64,0,0,0,155.37,32Z"/><path class="cls-1" d="M179.5,23.89a2.58,2.58,0,0,0,.39,0,1.67,1.67,0,0,0,1.21-2,1.65,1.65,0,1,0-1.6,2Z"/><path class="cls-1" d="M173.35,25.53a2.22,2.22,0,0,0,.45-.06,1.65,1.65,0,1,0-.91-3.18,1.65,1.65,0,0,0,.46,3.24Z"/><path class="cls-1" d="M96.13,74.86a1.65,1.65,0,0,0-2.07,2.58,1.68,1.68,0,0,0,2.32-.26A1.64,1.64,0,0,0,96.13,74.86Z"/><path class="cls-1" d="M361.55,117.34a1.58,1.58,0,0,0,.61-.12,1.64,1.64,0,1,0-.61.12Z"/><path class="cls-1" d="M295,38.76a1.65,1.65,0,0,0,.57,2.26,1.75,1.75,0,0,0,.85.23A1.65,1.65,0,1,0,295,38.76Z"/><path class="cls-1" d="M315.9,53.31a1.68,1.68,0,0,0,.2,2.34,1.65,1.65,0,1,0-.2-2.34Z"/><path class="cls-1" d="M259.82,23.77a1.64,1.64,0,0,0,1.11,2.05,1.5,1.5,0,0,0,.47.08,1.65,1.65,0,1,0-1.58-2.13Z"/><path class="cls-1" d="M19.59,175.2c.27.45.61,1,1,1.74l.67,1.2c.1-.38.19-.76.29-1.15h.14c0,.09,0,.14.13.14l.14.13a.12.12,0,0,1,.13.14h.14v.13h.13a.12.12,0,0,0,.14.14v.13h.13l.13.14.68.67c0,.09,0,.13.13.13v.14h.1c-.21,1.14-.39,2.24-.5,3.29,0,.16,0,.32,0,.48q-1,11.1,5.36,15.25a14.21,14.21,0,0,0,2,1.08c.72.27,1.55.54,2.49.8a25,25,0,0,0,3.3.68,6.17,6.17,0,0,0,1.21.13h1.21a23.61,23.61,0,0,0,5.38-.54c1.53-.35,2.65-.62,3.37-.8l1.21-.41L51,197.9q2.3-.94,4.65-2a37.85,37.85,0,0,0,4.64-2.55A74.09,74.09,0,0,0,73,184.14c.36-.32.72-.64,1.07-1a68.86,68.86,0,0,0,7.54-8.28c.72-.89,1.39-1.79,2-2.69s1.26-1.84,1.88-2.82l.81-1.48,1.08-2.15c.35-.72.67-1.44.94-2.16a24.5,24.5,0,0,0,1.07-2.69c.27-.81.5-1.48.68-2a44.39,44.39,0,0,0,1.75-7.27,3.58,3.58,0,0,1,.06-.61s0-.11,0-.16a20.66,20.66,0,0,0,.41-3.45c0-.1,0-.2,0-.3.1-1.32.17-2.64.17-4,0-1,0-1.86-.07-2.62a13,13,0,0,0-.2-1.82,43.55,43.55,0,0,0-1.9-9.4A29.21,29.21,0,0,0,79,113.14h0l-.39-.26c-.41-.27-.79-.55-1.22-.81l-.07,0a27.09,27.09,0,0,0-4.76-2.32l-.56-.2-.4-.15-.24-.07a33.52,33.52,0,0,0-7.16-1.66v0l-1.41-.2a8.41,8.41,0,0,0-1-.07h-3.1a54.16,54.16,0,0,0-12.51,1.82,38.79,38.79,0,0,0-6,2.06l-.07,0h0a61.45,61.45,0,0,0-9.92,5.51l-1.88,1.35-.14.13c-1.61,1.26-3.14,2.51-4.57,3.77l-.14.13h-.13l-1.08.94c-.63.64-1.5,1.53-2.62,2.69l-.11.12c-.45.47-.93,1-1.42,1.53-.69.78-1.41,1.61-2.17,2.53q-2,2.41-4.17,5.51a77.58,77.58,0,0,0-4.17,6.73,15.64,15.64,0,0,0-1.08,2.35c-.27.77-.54,1.51-.81,2.23q-1.2,5.91,1.75,7.93l2.15,1.35Q12.64,158,16.87,161a27.65,27.65,0,0,1,7.33,8l.67.95c.27.44.61,1,1,1.74s.83,1.49,1.28,2.29l1.61,3.64-.13.13a.4.4,0,0,0-.14-.27l-.13-.13v-.14h-.13v-.13l-.14-.14v-.13H28v-.14h-.14v-.13H27.7v-.13l-.14-.14v-.13h-.13V176H27.3v-.13a.12.12,0,0,1-.14-.14H27v-.13h-.13v-.14c-.09,0-.13,0-.13-.13l-.68-.67-.13-.14h-.13v-.13a.12.12,0,0,1-.14-.14h-.14v-.13h-.13a.12.12,0,0,0-.13-.14l-.14-.13c-.09,0-.13,0-.13-.14h-.14c-.36,1.32-.66,2.58-.92,3.81l-.1-.23c-.45-.81-.87-1.57-1.28-2.29s-.74-1.3-1-1.75l-.67-.94a27.65,27.65,0,0,0-7.33-8q-4.24-3-7.34-4.91L4.07,158q-3-2-1.75-7.93c.27-.72.54-1.46.81-2.23a15.64,15.64,0,0,1,1.08-2.35,77.58,77.58,0,0,1,4.17-6.73q2.14-3.09,4.17-5.52c1.34-1.61,2.58-3,3.7-4.17l.93-1-.28.24c-.63.64-1.5,1.53-2.62,2.69s-2.36,2.56-3.7,4.18-2.74,3.45-4.17,5.51-2.83,4.31-4.18,6.73a16.59,16.59,0,0,0-1.07,2.35c-.27.77-.54,1.51-.81,2.23Q-.87,158,2.1,160l2.15,1.35q3.11,1.89,7.34,4.91a27.65,27.65,0,0,1,7.33,8Zm72.26-23.77,0,0h0A.43.43,0,0,0,91.85,151.43Zm-63.93,7.25A17.56,17.56,0,0,0,21.18,154L21,153.9a20.06,20.06,0,0,0-2.69-.94v0l-.67-.17h0l-.94-.27v-.13c.27-.45.53-.88.8-1.28a13.81,13.81,0,0,0,.81-1.42l1.38-2.29c1.29-2.1,2.68-4.32,3.5-5.54.58-.84,1.19-1.7,1.85-2.59a60.24,60.24,0,0,1,5.65-6.6A66,66,0,0,1,38,126.32a47.88,47.88,0,0,1,9.22-5.38c1.7-.71,3.32-1.32,4.84-1.81.53-.18,1.05-.33,1.57-.48a36.33,36.33,0,0,1,9.52-1.43c.38,0,.76,0,1.14.06l.22,0c.65.07,1.29.17,1.93.3.3.07.61.16.93.25l.4.11c6.07,1.87,13.27,7.67,13.89,21.68.13,9.55-3.83,19.21-4.36,20.45l-.05.13h0l-.29.67L75.33,164l-1.62,2.82a7.69,7.69,0,0,1-.6,1,6.28,6.28,0,0,1-.74.87,35,35,0,0,1-2.29,3.3c-.81,1-1.66,2-2.56,3l-.8.81a53.65,53.65,0,0,1-9.42,8.07L55.82,185l-.81.54-1.61.95a8.87,8.87,0,0,1-1.48.94,16.73,16.73,0,0,0-1.48.8c-1.35.72-2.65,1.37-3.91,1.95s-2.42,1.1-3.49,1.55a3.54,3.54,0,0,1-1,.34,1.91,1.91,0,0,0-.88.34.25.25,0,0,0-.2.06.26.26,0,0,1-.2.07l-2.42.81a3.73,3.73,0,0,1-.88.13,1.33,1.33,0,0,0-.6.14h-.41c-2.6,0-4-1.13-4.3-3.37q-.67-5.11,3.36-14.93c.18-.36.34-.69.47-1s.29-.7.47-1.14l1.08-2.29a59.6,59.6,0,0,1,2.56-5.52c1-1.88,2.06-3.86,3.23-5.92q2.14-4,4.37-7.87t4.24-7.07q2-3.22,3.63-5.71t2.56-4l.4-.54a.38.38,0,0,0,.13-.27.54.54,0,0,0,.14-.4.78.78,0,0,0-.67-.4,12.92,12.92,0,0,0-2.43-.14h-.26l-.14-.14c-.72,0-1.46,0-2.22.07-.58,0-1.13.1-1.68.16a10.35,10.35,0,0,0-1.12.11h0a22.61,22.61,0,0,0-3.7.73l-1.21.27-1.07.27a4,4,0,0,0-1.75,1.35q-1.08,1.74-3.63,6.05c-1.51,2.53-3.09,5.51-4.73,8.88l0,0s-.48,1-1.14,2.31l-.83,1.55h.09l-.23.48v-.07l-.27.53h.05l-.6,1.3-1.6,3.41v.14h-.13A17.75,17.75,0,0,0,27.92,158.68Z"/><path class="cls-1" d="M71.22,186.1A73.11,73.11,0,0,1,57,196.64a37.85,37.85,0,0,1-4.64,2.55q-2.36,1.08-4.65,2l-2.28.94-1.21.41c-.72.18-1.84.45-3.37.8a23.61,23.61,0,0,1-5.38.54H34.21a6.17,6.17,0,0,1-1.21-.13,25,25,0,0,1-3.3-.68c-.94-.26-1.77-.53-2.49-.8a13.52,13.52,0,0,1-2-1.08q-8-5.19-4.37-21.27l0,0-.13-.14h-.14v-.13c-.09,0-.13,0-.13-.14h-.14v-.13h-.13a.12.12,0,0,0-.13-.14l-.14-.13c-.09,0-.13,0-.13-.14h-.14q-5.11,18.57,3.63,24.22a14.21,14.21,0,0,0,2,1.08q1.08.41,2.49.81a24.81,24.81,0,0,0,3.3.67,6.25,6.25,0,0,0,1.21.14h1.21a24.19,24.19,0,0,0,5.38-.54l3.36-.81,1.22-.41,2.28-.94q2.3-.94,4.65-2A38.6,38.6,0,0,0,55,198.61,72,72,0,0,0,71.22,186.1Z"/><path class="cls-1" d="M101.23,139.73c-.19,1.12.19,1.76,1.15,1.92l.18.07a6.52,6.52,0,0,0,1.92-1.81c0-.07.08-.15.13-.22s0,0-.08.06l-.17-.07c-1-.16-1.35-.8-1.16-1.92A21,21,0,0,1,105,132.9c.08,0,.11-.09.07-.18l.25-.11-.06-.12-.12.06a16.47,16.47,0,0,0,0-9A41.76,41.76,0,0,0,102,116l-.11-.25,0-.14a4,4,0,0,0-1.78.43.13.13,0,0,1-.08.18c-.08,0-.11.07-.09.11s0,.08-.09.12a2.41,2.41,0,0,0-.06.69,1.83,1.83,0,0,0,.18.58l.11.25a41.76,41.76,0,0,1,3.1,7.6,16.47,16.47,0,0,1,0,9l.12-.06.06.12-.25.12a.11.11,0,0,1-.07.17A21.12,21.12,0,0,0,101.23,139.73Z"/><path class="cls-1" d="M157.93,192q-11.7,10.81-24.09,12.17a28.94,28.94,0,0,1-6.53.07,29.61,29.61,0,0,1-6.72-1.48,28,28,0,0,1-6.19-3,16.51,16.51,0,0,1-4.78-4.71q-5.52-7.8-2.69-20.58v-.27c-.09,0-.13,0-.13-.14a85.27,85.27,0,0,1,3.77-11.37,107.85,107.85,0,0,1,6.32-12.84,154.79,154.79,0,0,1,11-16.42c1.73-2.21,3.47-4.21,5.2-6a75.82,75.82,0,0,0-7.17,8,153.28,153.28,0,0,0-11,16.42,110.35,110.35,0,0,0-6.33,12.84A86.62,86.62,0,0,0,104.83,176c0,.09,0,.14.13.14v.27q-2.82,12.78,2.69,20.58a16.51,16.51,0,0,0,4.78,4.71,28,28,0,0,0,6.19,3,29.61,29.61,0,0,0,6.72,1.48,28.94,28.94,0,0,0,6.53-.07Q144.25,204.79,156,194c.9-.84,1.79-1.73,2.67-2.65C158.4,191.54,158.17,191.78,157.93,192Z"/><polygon class="cls-1" points="329.65 175.33 329.51 175.47 329.65 175.47 329.65 175.33"/><path class="cls-1" d="M314,160.76s-.05,0-.08,0v.1A.64.64,0,0,0,314,160.76Z"/><path class="cls-1" d="M201.79,131.12c.31-.4.65-.77,1-1.14a25.1,25.1,0,0,0-3,3.11c-.17.18-.51.53-1,1.07a26.07,26.07,0,0,0-1.82,2.29l.13-.14a.43.43,0,0,1,.27-.13h.27l.13,0,.36-.51h.14l.13-.14h.14v-.13h.13a.12.12,0,0,1,.14-.14v-.13L199,135v-.4h-.13l.13-.13a26.07,26.07,0,0,1,1.82-2.29C201.27,131.65,201.61,131.29,201.79,131.12Z"/><path class="cls-1" d="M197,136.58v.4l-.14.14v.13c-.09,0-.13.05-.13.14h-.14v.13h-.13l-.13.14h-.14a78,78,0,0,0-5.31,8.67,84.33,84.33,0,0,0-5.72,13.8l-.67,2c-.36,1.16-.86,2.87-1.48,5.11l-.41,2.15h.14v.14c0,.18,0,.27-.14.27h-.13c-.27,1.34-.49,2.62-.67,3.83s-.32,2.44-.41,3.7a5.91,5.91,0,0,0-.2,1.48c0,.21,0,.47,0,.7h0a24.83,24.83,0,0,0,0,4.13h0a.25.25,0,0,1,0,.08c0,.78.12,1.49.2,2.1l0,.27c.14,1,.27,1.71.27,1.71h0c0,.18.05.36.09.54a14.51,14.51,0,0,0,1.55,4.37,9.77,9.77,0,0,0,2.82,3.23,7.3,7.3,0,0,0,4.44,1.28,23.16,23.16,0,0,0,2.29-.4,8.21,8.21,0,0,0,1.34-.4l1.35-.54a20.66,20.66,0,0,0,5.92-3.77,26.57,26.57,0,0,0,1.93-1.9,9.42,9.42,0,0,0,1,2.17,7.28,7.28,0,0,0,2.29,2.49,14.71,14.71,0,0,0,2.49,1.34,12.36,12.36,0,0,0,2.75.74,2.75,2.75,0,0,0,.88.14h.87q6.72,0,13.59-7.4h0c-3.91,3.61-7.77,5.43-11.61,5.43h-.87a2.75,2.75,0,0,1-.88-.14,13.09,13.09,0,0,1-2.75-.74,14.71,14.71,0,0,1-2.49-1.34,7.37,7.37,0,0,1-2.29-2.49,10.07,10.07,0,0,1-1-2.17c-.62.66-1.26,1.31-1.93,1.9a20.62,20.62,0,0,1-5.92,3.76l-1.34.54a7.72,7.72,0,0,1-1.35.41,23.16,23.16,0,0,1-2.29.4,7.36,7.36,0,0,1-4.44-1.28,9.88,9.88,0,0,1-2.82-3.23,14.71,14.71,0,0,1-1.55-4.37c-.1-.51-.17-1-.25-1.52v0c-.11-.8-.18-1.62-.24-2.33,0-.32,0-.62-.06-.89s0-.49,0-.67,0-.19,0-.26v-.68h0c0-.16,0-.3,0-.44l-.08.17c0-1.16,0-2.15.06-3a5.28,5.28,0,0,1,.21-1.48c.08-1.26.22-2.49.4-3.7s.4-2.49.67-3.83h.13c.09,0,.14-.09.14-.27v-.14h-.14l.41-2.15q.94-3.36,1.48-5.12l.67-2a84,84,0,0,1,5.72-13.8q2.49-4.58,4.47-7.48l-.32-.43-.14.13Z"/><path class="cls-1" d="M336.43,160.45l-.06-.17v.12Z"/><path class="cls-1" d="M315.15,158.79a1.09,1.09,0,0,1-.17.13l.06.05Z"/><path class="cls-1" d="M105.19,111s0,.08-.09.12a2.85,2.85,0,0,0-.06.69,1.91,1.91,0,0,0,.18.58l.11.25c.21.38.4.79.59,1.19.53,1.08,1,2.21,1.46,3.38.38,1,.73,2,1.05,3a13.5,13.5,0,0,1,.41,1.78,17.1,17.1,0,0,1-.38,7.2l.12-.06.06.12-.25.11a.12.12,0,0,1-.07.18l-.3.67a19,19,0,0,0-1.51,4.19c0,.08,0,.13,0,.2v0a2.66,2.66,0,0,0,0,.56,1.21,1.21,0,0,0,.89,1,1.83,1.83,0,0,0,.28.1l.18.07a6.52,6.52,0,0,0,1.92-1.81,8.74,8.74,0,0,0,1.29-2.57l.89-2.61-.18-.07.13,0,.07-.18,1.31-4,.27-2a17.54,17.54,0,0,0,.61-4.24c0-1.29,0-2.59-.12-3.93a12.07,12.07,0,0,0-.47-1.85,3.13,3.13,0,0,0-1.32-1.48,9.61,9.61,0,0,0-3.32-1.17,5.22,5.22,0,0,0-3.56.27.13.13,0,0,1-.07.18C105.21,111,105.17,111,105.19,111Zm3.24,18.82.18.07,0,.12-.24.11-.06-.12Zm-.31,1.61.07-.18.12-.05.25-.11.11.24a.13.13,0,0,1-.07.18.12.12,0,0,1-.07.18l-.12,0-.18-.07h-.3A.45.45,0,0,1,108.12,131.45Zm.55.93-.11.05-.19.23-.11-.24-.18-.07.13,0-.06-.13.37-.16c0,.19,0,.31.16.36h0Zm1.72-6.07-.12,0,0,0-.11-.25.06-.17.18.06h0l.07-.18.06.12,0,.3C110.35,126.09,110.32,126.15,110.39,126.31Zm.07,2.77-.13.06-.18-.07.12-.06.08-.17.17.06-.12.06Zm.27-.71-.2.23,0-.12-.18-.07.12,0,.07-.18.18.07.07-.18.05.12Zm.44,2.31-.06-.12.07-.18.18.07Zm.22-2.46-.12.06a.17.17,0,0,0-.11-.25l.19-.23.18.06Zm.38-.46.11.24-.17-.07-.11-.24h.3Zm.35-.89-.13,0,.07-.18.13,0Zm.19-4.51.13-.06.3,0c.07.16.07.26,0,.3-.1.24-.18.27-.25.11l-.23-.19Zm-.13,1.68v-.3l.25-.11a.35.35,0,0,1,.23.19l-.2.53-.18-.06.11.24-.29-.31.12-.06ZM112,126.2l.23.19-.19.23-.18-.07a.12.12,0,0,1-.18-.06l-.3,0,.07-.18-.06-.12h.3l-.12.06.11.25a.12.12,0,0,1,.07-.18l.12-.06,0-.12Zm-.52-4.78.18.07.11.24-.37.16-.11-.24C111.27,121.45,111.33,121.37,111.45,121.42ZM111,124.5a.34.34,0,0,1,.16-.15l.36.14,0,.3-.12.06-.07.17-.05-.12-.18-.07-.23-.19A.23.23,0,0,0,111,124.5Zm-.23,2,0,.12a.12.12,0,0,1-.06.18l-.13,0h-.3l0-.12-.05,0s-.07-.07,0-.1l0-.07,0-.11.18.07C110.61,126.36,110.71,126.36,110.75,126.45Zm-.32-1h-.12l.07-.18.1,0h0l.11.25Zm0-.49.12,0,0,0,0,.08,0,0Zm-.07-2.47.06.12.17.07,0,.13-.35-.14Zm-.23,1.13.12,0,.06.12.17.07c0,.2-.13.26-.37.17ZM110,133.7l-.25.11-.1-.24Z"/><path class="cls-1" d="M224.27,148.25a8.64,8.64,0,0,0,2.49.95,2.31,2.31,0,0,0,.94.13,5.77,5.77,0,0,0,1.4-.18,5.34,5.34,0,0,0,1.22-.48,4.48,4.48,0,0,0,.47-.28A9.69,9.69,0,0,0,233,146.3a13.79,13.79,0,0,0,1.68-3.16,5.69,5.69,0,0,0,.34-3.77,9.42,9.42,0,0,0-1.55-3.49c-1.07-1.8-2.38-2.69-3.9-2.69s-3.18,1.12-4.71,3.36c-.07.1-.12.22-.19.33a18.33,18.33,0,0,0-1.62,3.17,12.31,12.31,0,0,0-.88,3.63,4.87,4.87,0,0,0,.54,3A4.71,4.71,0,0,0,224.27,148.25Z"/><path class="cls-1" d="M326.59,163.19c0,.09,0,.13-.14.13h.14Z"/><path class="cls-1" d="M325.44,148.25a8.76,8.76,0,0,0,2.49.95,2.31,2.31,0,0,0,.94.13,5.85,5.85,0,0,0,1.41-.18,5.26,5.26,0,0,0,1.21-.48,4.62,4.62,0,0,0,.48-.28,10.12,10.12,0,0,0,2.22-2.09,13.79,13.79,0,0,0,1.68-3.16,5.69,5.69,0,0,0,.34-3.77,9.76,9.76,0,0,0-1.55-3.49c-1.08-1.8-2.38-2.69-3.9-2.69s-3.19,1.12-4.71,3.36a3.54,3.54,0,0,0-.19.33,16.33,16.33,0,0,0-.93,1.63c-.25.5-.49,1-.7,1.54a12.28,12.28,0,0,0-.87,3.63,4.56,4.56,0,0,0,2.08,4.57Z"/><path class="cls-1" d="M428.71,160.9a7.24,7.24,0,0,0-1.89-2.28.87.87,0,0,0-.67-.27c-.36,0-.63.22-.81.67a.28.28,0,0,1-.06.2.52.52,0,0,0-.07.34l-.14.13a25.22,25.22,0,0,1-1.05,2.67c-.13.31-.27.61-.43,1l-.13.27c-.25.51-.5,1-.76,1.51l-.05.11a12.21,12.21,0,0,0-.67,1.61l-1.62,2.83v.13a.78.78,0,0,0-.27.54,49.21,49.21,0,0,1-6.39,8.81,16.58,16.58,0,0,1-1.93,1.76c-.31.23-.61.45-.9.63a4.67,4.67,0,0,1-2.35.77,2.17,2.17,0,0,1-1.34-.4c-.63-.62-.67-2.13-.13-4.51a65.27,65.27,0,0,1,2.42-8q1.61-4.44,3.36-8.68c1.17-2.83,2.11-5,2.83-6.53V154q.25-.54,0-.81c-.19-.18-.32-.27-.41-.27-.71-.32-1.36-.58-2-.81-.24-.09-.49-.19-.72-.26l0,0a6.11,6.11,0,0,0-.7-.15v0a4.48,4.48,0,0,0-.7-.09c-.1,0-.21,0-.31,0H410a13.06,13.06,0,0,0-2,.13,6.89,6.89,0,0,0-1.54.41,4,4,0,0,0-1.35,1.07c-.09,0-.13,0-.13.07s0,.07-.14.07l-.13.27-.21.34a15.58,15.58,0,0,0-2,3.2l0-.05a0,0,0,0,0,0,0,6.39,6.39,0,0,0-.16-1,14,14,0,0,0-1.18-3.13,6.41,6.41,0,0,0-4.57-3.23,14.52,14.52,0,0,0-2.69-.27,21.76,21.76,0,0,0-4.24.61,21,21,0,0,0-6.26,2.76,27.71,27.71,0,0,0-5.77,5.18c-.3.36-.59.72-.88,1.09a38.54,38.54,0,0,0-3.82,6h0s-3.84,6.69-3.94,10.21a34.13,34.13,0,0,1-3.13,3.84,17.34,17.34,0,0,1-2,1.81,10.67,10.67,0,0,1-.9.63,4.3,4.3,0,0,1-2.16.72,2.18,2.18,0,0,1-1.35-.4,3.26,3.26,0,0,1-.51-2.48c.29-1.39,1.17-5.51,1.73-7.07s2.94-5.11,1.33-8.35a.25.25,0,0,1,0-.07,5.83,5.83,0,0,0-.89-1.24v0l-.14-.13c-.16-.16-.32-.33-.5-.48l-.07-.06-.1-.08c-.28-.23-.56-.45-.84-.65a34.69,34.69,0,0,0-5.21-3l-.95-.4q-3.9-1.62-3.49-4.71h0a7.3,7.3,0,0,1,.4-1.52c.1-.24.21-.48.34-.73.05-.08.09-.17.14-.26a10.82,10.82,0,0,1,.88-1.32,21.44,21.44,0,0,1,1.74-2.09c.45-.45.61-.86.48-1.21a2.38,2.38,0,0,0-.34-.68,8,8,0,0,0-3.9-2.42,16.24,16.24,0,0,0-3.9-.54h-.88a2.8,2.8,0,0,0-.88.14,3.14,3.14,0,0,0-1.34.67l-.67.67c-.3.66-.56,1.29-.8,1.89s-.49,1.31-.67,1.92a17.35,17.35,0,0,0-.48,1.84,26.75,26.75,0,0,0-.54,4.11,10.5,10.5,0,0,0,.15,2.5,5.72,5.72,0,0,0,.94,2.6,1.31,1.31,0,0,0-.22.35l-.26.54v.13l-.68,1.48v.17l-.05.1h-.08l-.33.87C338,164,337,166,336.41,167.23c-.36.7-.87,1.7-1.49,2.82l-.13.14h.06c-.18.33-.38.68-.58,1a45.52,45.52,0,0,1-5.94,8.05,18.52,18.52,0,0,1-1.76,1.58,11.15,11.15,0,0,1-.93.64,4.77,4.77,0,0,1-2.42.8,1.64,1.64,0,0,1-1.21-.4c-.45-.36-.6-1.16-.47-2.42a33,33,0,0,1,.87-4.51q.68-2.62,1.75-5.65t2.29-6h-.05a30.39,30.39,0,0,0,1.38-3.16.43.43,0,0,0,0-.07c.22-.6.47-1.15.72-1.67,1.2-2.52,2.48-4.28,1.88-5.19-.13-.18-.25-.27-.33-.27a9.65,9.65,0,0,0-1.74-.76l-.35-.11a12.42,12.42,0,0,0-5.18-.34,1.8,1.8,0,0,1-.22.06c-.2,0-.37.11-.55.15a2.06,2.06,0,0,0-1.52.6,23.24,23.24,0,0,0-3.74,5.79l0,.08c-.76,1.37-1.47,2.7-2.07,3.95l-.06.13-.41.54-1.75,2.43-.13.13c0,.09-.09.22-.27.4l-2.36,2.9c-.76.94-1.55,1.86-2.35,2.75l-1.75,1.76-.78.73h0l-.42.39-.73.69a43.17,43.17,0,0,1-4.61,3.71c-.13.08-.26.18-.39.25-1.21.72-2.22,1.3-3,1.75a2,2,0,0,1-.8.33,2.6,2.6,0,0,0-.68.21,5.7,5.7,0,0,1-1,.4q-.47.13-1.14.27a12.94,12.94,0,0,1-1.28.2,10.4,10.4,0,0,1-1.28.07h-.4a5,5,0,0,1-1.34-.14,7.51,7.51,0,0,1-3.5-1.21,1.37,1.37,0,0,1-.17-.17,3.82,3.82,0,0,1-1-1.3l-.11-.29a8.89,8.89,0,0,1-.36-1.06,3.58,3.58,0,0,0-.06-.61,2.7,2.7,0,0,1-.07-.6h-.67a.12.12,0,0,1-.14-.14H281l-.14-.13h-.4a.13.13,0,0,0-.14-.14H280c0-.09-.05-.13-.14-.13h-.13l-.14-.13h-.13a.13.13,0,0,1-.14-.14h-.13l-.14-.13H279V176h-.13c0-.09-.05-.13-.14-.13l-.13-.14h-.14v-.13l-.13-.14v-.13h-.14v-.14h.14a10.11,10.11,0,0,0,1.54.41l1.42.27a6.69,6.69,0,0,0,1.34.13,10.11,10.11,0,0,0,1.89.14,25.25,25.25,0,0,0,5.24-.54,18.79,18.79,0,0,0,4.44-1.48,20.88,20.88,0,0,0,2.14-1.21c.42-.27.83-.56,1.21-.85a15.78,15.78,0,0,0,4.86-5.88,13.63,13.63,0,0,0,1-2.69c.22-.9.38-1.66.47-2.29a11.29,11.29,0,0,0,.07-4,16.13,16.13,0,0,0-.81-2.89,8.41,8.41,0,0,0-1.55-2.35,7.79,7.79,0,0,0-3.76-2.16c-.46-.09-.88-.15-1.28-.2s-.88-.07-1.42-.07a14.52,14.52,0,0,0-2.69.27c-.89.19-1.84.41-2.82.67a23.07,23.07,0,0,0-5.08,2.56,10.3,10.3,0,0,0-1.25.85l-.37.32c-.46.36-.93.72-1.37,1.12a9.32,9.32,0,0,0-1.15,1.08c-.31.36-.69.76-1.14,1.21l-.43.54a13.65,13.65,0,0,0-2.44,3,24.15,24.15,0,0,1-2,1.68c-.23.17-.45.35-.69.51l-.21.15q-1.44,1-2.82,1.8a14.29,14.29,0,0,1-2.62,1.26l-.2,0,.13-.27v-.13a.4.4,0,0,0,.14-.27l.14-.64c.75-2.57,2.14-8.38.82-12.33h0a4.57,4.57,0,0,0-2.55-3,4.21,4.21,0,0,0-1.76-.27c-2,0-4,1.17-6.05,3.5-.29.33-.56.7-.83,1.06s-.64.9-.94,1.37a23.38,23.38,0,0,0-2.4,5,15,15,0,0,0-.81,7.74,11.26,11.26,0,0,0,.5,2.13.36.36,0,0,0,0,.25l.23.39a8.24,8.24,0,0,0,1.57,2.48H256l.08.1v0c-.45.63-.9,1.24-1.35,1.82s-.9,1.14-1.34,1.68l-2.08,2.29a13.35,13.35,0,0,1-3.77,2.63l-.21.06v0a4.7,4.7,0,0,1-1.07.28s-1.72-1.25-1.1-5.29A128.8,128.8,0,0,1,250.36,159h0c.59-1.47,1.12-2.78,1.55-3.9A16.84,16.84,0,0,1,253,152.7v-.41c0-.09,0-.13.14-.13a7,7,0,0,0,.27-.95,1.45,1.45,0,0,0-1.49-1.61c-.72-.09-1.41-.16-2.08-.2s-1.37-.07-2.09-.07-1.21,0-1.75.07-1.07.06-1.61.06a6.45,6.45,0,0,0-1.75.68,4.88,4.88,0,0,0-1.07.8c-.19.19-.27.32-.27.41a.36.36,0,0,0-.14.27,5.83,5.83,0,0,0-.67,1.21.37.37,0,0,0-.08.15s-.06.08-.06.12-.24.52-.47,1c-.08.19-.16.41-.24.62a11.6,11.6,0,0,0-.36,1.2c-.27.9-.61,2-1,3.37s-.83,2.82-1.28,4.44v.13a17.47,17.47,0,0,0-.81,1.62,10.47,10.47,0,0,1-.94,1.75h0c-.95,1.65-4.05,7-5.11,8.46a33.39,33.39,0,0,1-3,3.58,19.83,19.83,0,0,1-1.76,1.58,11.15,11.15,0,0,1-.93.64,4.8,4.8,0,0,1-2.43.8,1.61,1.61,0,0,1-1.2-.4c-.46-.36-.61-1.16-.47-2.42a25.93,25.93,0,0,1,.53-3.08c.12-.39,2.56-8.24,4.38-13.07h.13v-.13c0,.09,0,.12-.13.13l.34-.88.93-2.14h0c1.46-2.8,2.76-5.41,2.75-6.65a.61.61,0,0,0-.06-.41c-.26-.62-1.3-.89-2-1l-.05,0-.34-.11a12.47,12.47,0,0,0-5.19-.34,1.8,1.8,0,0,1-.22.06,6.63,6.63,0,0,0-1.26.35,1.2,1.2,0,0,0-.81.4l.05,0c-1,.83-2.05,2.65-3.17,4.66a.59.59,0,0,0,0,.08c-1,1.77-1.93,3.46-2.69,5a59.41,59.41,0,0,0-2.35,5.52l-.76,1.9-.32.52-1.34,2.15a43.72,43.72,0,0,1-5.72,7.27A16,16,0,0,1,201.6,181c-.29.22-.57.41-.84.58a4.44,4.44,0,0,1-2.26.75h-.4a2.07,2.07,0,0,1-.67-.27c-1.61-2-.71-7.1.47-11.34.37-1.27.75-2.47,1.14-3.59l-.06.06c0-.1.07-.2.1-.29s.1,0,.1.1a4.42,4.42,0,0,0,.25-1.13c.08-.2.14-.38.21-.55l.93-1v-.24c0-.09,0-.14-.06-.14s-.06-.05-.06-.12c.15-.11.37-.27.62-.48a33.11,33.11,0,0,0,2.81-2.37V161c.54-.51,1.1-1.08,1.67-1.67l.18-.19h0c1.38-1.45,2.85-3.13,4.41-5.07.87-1.07,1.72-2.27,2.56-3.53h0a47.13,47.13,0,0,0,8.76-22.23h0c.25-2.91-.18-5.07-1.31-6.44a2.81,2.81,0,0,0-1.55-1.22c-.49-.08-.79-.13-.87-.13a.58.58,0,0,0-.41-.14,12.29,12.29,0,0,0-6.19,2,21.84,21.84,0,0,0-4.67,3.83l-.09.07a47.14,47.14,0,0,0-6.45,8.1.15.15,0,0,0,0-.08c0-.09-.09-.13-.27-.13h-.26a.36.36,0,0,0-.27.13l-.14.14.41.53h.13l.13-.13h0c-1.22,1.91-2.36,4-3.44,6.07l-.06.1a79.3,79.3,0,0,0-4.89,11.36.88.88,0,0,0,0,.15,84.68,84.68,0,0,0-2.73,8.72c-.07.23-.13.45-.2.7l-.14.71c-.13.62-.26,1.24-.37,1.85h0c-.27,1.34-.49,2.62-.67,3.83s-.32,2.44-.4,3.7a5.28,5.28,0,0,0-.21,1.48c0,.5,0,1.1-.05,1.74l0,.12a14.07,14.07,0,0,0,0,3h0a1.1,1.1,0,0,1,0,.18,37,37,0,0,0,.59,4.53,14.71,14.71,0,0,0,1.55,4.37,9.88,9.88,0,0,0,2.82,3.23,7.36,7.36,0,0,0,4.44,1.28,23.16,23.16,0,0,0,2.29-.4,7.72,7.72,0,0,0,1.35-.41l1.34-.54a20.62,20.62,0,0,0,5.92-3.76,26.41,26.41,0,0,0,1.93-1.89,10,10,0,0,0,1,2.16,7.37,7.37,0,0,0,2.29,2.49,14.71,14.71,0,0,0,2.49,1.34,13.09,13.09,0,0,0,2.75.74,2.75,2.75,0,0,0,.88.14H219a14.49,14.49,0,0,0,7.55-2.34h0l0,0,.14-.08c.6-.37,1.2-.79,1.8-1.24.14-.11.28-.2.41-.31l.08-.06.09-.07,0,0h.13c-.08.09-.17.17-.25.25s0,.33,0,.51a11,11,0,0,0,.8,3.36,8.23,8.23,0,0,0,6.46,5.11,4.69,4.69,0,0,0,1.35.14h1.21a14.38,14.38,0,0,0,5.11-1.21,24,24,0,0,0,4.58-2.69,30.55,30.55,0,0,0,3.9-3.5l.26-.3c-.69.63-1.42,1.24-2.19,1.82a23,23,0,0,1-4.58,2.69,14.39,14.39,0,0,1-5.11,1.22h-1.21a4.57,4.57,0,0,1-1.34-.14,8.25,8.25,0,0,1-6.46-5.11,10.87,10.87,0,0,1-.81-3.36c0-.18,0-.33,0-.49s.23-.24.35-.36a14.16,14.16,0,0,0,2.94-3.23c0,.26,0,.5,0,.77a10.87,10.87,0,0,0,.81,3.36,8.23,8.23,0,0,0,6.46,5.11,4.57,4.57,0,0,0,1.34.14h1.21a14.39,14.39,0,0,0,5.11-1.22,23,23,0,0,0,4.58-2.69c.23-.17.44-.37.67-.55s.62-.49.91-.74a30.35,30.35,0,0,0,2.32-2.2c1.09-1.17,2.09-2.34,3-3.52l.58-.15a29.4,29.4,0,0,0,3.56-1.24,18.58,18.58,0,0,0-.33,2,.82.82,0,0,1-.07.4,1.07,1.07,0,0,0-.06.41,20.52,20.52,0,0,0,.06,3.63,12.48,12.48,0,0,0,1.35,4.44,12.91,12.91,0,0,0,3.56,4.24,16.21,16.21,0,0,0,6.73,2.89c1.35.18,2.49.29,3.43.34l1.68.06h.27c.72,0,1.39,0,2-.06s1.26-.12,1.88-.2l.14-.14a10.19,10.19,0,0,0,1.75-.4c.53-.18,1.12-.36,1.75-.54a34.37,34.37,0,0,0,8.14-4.24,55.75,55.75,0,0,0,6.72-5.58h0a11.13,11.13,0,0,0,1.67,5.66,7.28,7.28,0,0,0,2.29,2.49,15.51,15.51,0,0,0,2.49,1.34,12.46,12.46,0,0,0,2.76.74,2.69,2.69,0,0,0,.87.14h.87q6.74,0,13.6-7.4h0c-3.9,3.61-7.77,5.43-11.6,5.43h-.88a2.74,2.74,0,0,1-.87-.14,13.2,13.2,0,0,1-2.76-.74,15.51,15.51,0,0,1-2.49-1.34,7.47,7.47,0,0,1-2.29-2.49,11.16,11.16,0,0,1-1.67-5.66h0a56.66,56.66,0,0,1-6.73,5.58,34.37,34.37,0,0,1-8.14,4.24c-.63.18-1.21.36-1.75.54a11,11,0,0,1-1.75.4l-.13.14c-.63.08-1.26.15-1.89.2s-1.3.06-2,.06h-.27l-1.68-.06c-.94-.05-2.08-.16-3.43-.34a16.21,16.21,0,0,1-6.73-2.89,12.91,12.91,0,0,1-3.56-4.24,12.74,12.74,0,0,1-1.35-4.44,20.52,20.52,0,0,1-.06-3.63,1.07,1.07,0,0,1,.06-.41.84.84,0,0,0,.07-.4c.07-.68.2-1.33.33-2a28.81,28.81,0,0,1-3.56,1.24l-1.28.33s.06-.09.08-.14a15,15,0,0,1,1-1.58,4.71,4.71,0,0,0,.83-1.31H264c.54-.09,1.39-.29,2.56-.61a30.06,30.06,0,0,0,3.53-1.23c-.13.65-.23,1.3-.3,2a.84.84,0,0,1-.07.4,1.07,1.07,0,0,0-.06.41,20.52,20.52,0,0,0,.06,3.63,12.74,12.74,0,0,0,1.35,4.44,12.91,12.91,0,0,0,3.56,4.24,16.21,16.21,0,0,0,6.73,2.89c1.35.18,2.49.29,3.43.34l1.68.06h.27c.72,0,1.39,0,2-.06s1.26-.12,1.89-.2l.13-.14a11.22,11.22,0,0,0,1.75-.4c.54-.18,1.12-.36,1.75-.54a34.37,34.37,0,0,0,8.14-4.24,56.66,56.66,0,0,0,6.73-5.58h0a11.16,11.16,0,0,0,1.67,5.66,7.47,7.47,0,0,0,2.29,2.49,15.51,15.51,0,0,0,2.49,1.34,13,13,0,0,0,2.76.74,2.74,2.74,0,0,0,.87.14h.88a14.69,14.69,0,0,0,7.72-2.44c.6-.37,1.2-.79,1.8-1.24l.41-.31.17-.13a30.21,30.21,0,0,0,2.62-2.41l.06,0a37.45,37.45,0,0,0,6.21-8c.28-.46.55-.91.79-1.36.8-1.48,1.43-2.62,1.88-3.43l.87-1.62.58.58a5.11,5.11,0,0,1,.6,1.55,4.37,4.37,0,0,1-.2,2.22c-.18.45-.32.8-.4,1.07s-.19.5-.27.67a2,2,0,0,0-.14.54q-3.22,9.83.14,14.94a8.52,8.52,0,0,0,2.28,2.42,13,13,0,0,0,2.49,1.41,12.61,12.61,0,0,0,2.76.74,8.81,8.81,0,0,0,1.88.14,13.59,13.59,0,0,0,7.61-2.36,31.44,31.44,0,0,0,4.46-3.59,14.08,14.08,0,0,0,.75,1.24,10.53,10.53,0,0,0,.71.94,7.66,7.66,0,0,0,1.17,1.09,11.51,11.51,0,0,0,2.32,1.4,16.67,16.67,0,0,0,5.45,1.28,3.38,3.38,0,0,1,.74.07,3.58,3.58,0,0,0,.61.06q7.07,0,12.26-5.88a15.31,15.31,0,0,1-10.29,3.91,3.58,3.58,0,0,1-.61-.06,3.38,3.38,0,0,0-.74-.07,16.67,16.67,0,0,1-5.45-1.28,10.09,10.09,0,0,1-3.49-2.49,10.73,10.73,0,0,1-1.45-2.18A32.1,32.1,0,0,1,362,192.8a13.56,13.56,0,0,1-7.6,2.36,8.85,8.85,0,0,1-1.89-.14,13.2,13.2,0,0,1-2.76-.74,13,13,0,0,1-2.49-1.41,8.52,8.52,0,0,1-2.28-2.42q-3.37-5.12-.14-14.94a2.44,2.44,0,0,1,.14-.54,6.13,6.13,0,0,0,.27-.67c.08-.27.22-.63.4-1.08a4.33,4.33,0,0,0,.2-2.21,5.11,5.11,0,0,0-.6-1.55c-.19-.18-.39-.38-.61-.61s-.43-.42-.6-.6l-.13-.09a19.48,19.48,0,0,1,.88-2v-.67a15.61,15.61,0,0,0-.46-2.69,25.32,25.32,0,0,0,3,2.15l.61.6c.22.23.42.43.61.61a5.11,5.11,0,0,1,.6,1.55,4.37,4.37,0,0,1-.2,2.22c-.18.44-.32.8-.4,1.07a6.13,6.13,0,0,1-.27.67,2.44,2.44,0,0,0-.14.54q-3.23,9.83.14,14.94a8.52,8.52,0,0,0,2.28,2.42A13,13,0,0,0,353,191a13.2,13.2,0,0,0,2.76.74,8.85,8.85,0,0,0,1.89.14,13.56,13.56,0,0,0,7.6-2.36,31.13,31.13,0,0,0,4.44-3.57,12,12,0,0,0,1.48,2.16,10,10,0,0,0,3.49,2.49,16.67,16.67,0,0,0,5.45,1.28,3.38,3.38,0,0,1,.74.07,3.58,3.58,0,0,0,.61.06,15.08,15.08,0,0,0,8.73-2.71c.33-.22.64-.47,1-.72s.8-.65,1.19-1v0l-.14.13V188h-.13v.27c-.1,0-.14.05-.14.13v.14h-.14v.27l-.13.13v.13l-.13.14v.13l-.14.14v.13l-.13.14c0,.09,0,.13-.14.13V190c0,.09,0,.13-.13.13v.14l-.14.13v.14a.12.12,0,0,0-.13.13l-.13.14v.13c-.09,0-.14,0-.14.13l-.13.14-.14.13a8.66,8.66,0,0,0,2.29,3,14.84,14.84,0,0,0,2.69,1.75,12.35,12.35,0,0,0,3.1.94,9.92,9.92,0,0,0,1.88.14,13.56,13.56,0,0,0,7.6-2.36,31.1,31.1,0,0,0,5.88-5,31.46,31.46,0,0,1-3.91,3.07,13.54,13.54,0,0,1-7.6,2.36,10,10,0,0,1-1.88-.14,12.35,12.35,0,0,1-3.1-.94,15.19,15.19,0,0,1-2.69-1.75,8.66,8.66,0,0,1-2.29-3l.14-.13.13-.14c0-.09.05-.13.14-.13v-.14l.13-.13a.12.12,0,0,1,.13-.14v-.13l.14-.14v-.13c.09,0,.13,0,.13-.14v-.13c.09,0,.14,0,.14-.13l.14-.14v-.13l.13-.14v-.13l.14-.14V187l.13-.13v-.27h.13v-.14c0-.09,0-.13.14-.13V186h.13v-.27l.14-.14v-.18l.07-.09h.06v-.07c.12-.14.24-.26.35-.41A18.3,18.3,0,0,0,396,183.3l2-2.75.13-.27v.4H398v.54h-.13v.4h-.14v.4h-.13v.27l-.14.14v.27h-.13V183c-.09,0-.14,0-.14.13v.14h-.13v.27l-.14.13v.13l-.13.14V184l-.14.14v.13l-.13.14c0,.09-.05.13-.14.13v.13c0,.1,0,.14-.13.14V185l-.14.14v.13a.12.12,0,0,0-.13.14l-.13.13v.14c-.09,0-.14,0-.14.13l-.13.14-.14.13a8.66,8.66,0,0,0,2.29,3,15.19,15.19,0,0,0,2.69,1.75,12.35,12.35,0,0,0,3.1.94,10,10,0,0,0,1.88.14,13.54,13.54,0,0,0,7.6-2.36c.77-.51,1.51-1.06,2.23-1.63l1-.82a31.12,31.12,0,0,0,3.16-3.13,45.43,45.43,0,0,0,4.78-6.46q1.95-3.22,2.89-5l1.08-2c.35-.72.67-1.44.94-2.16l.81-2.15a1.48,1.48,0,0,0,.13-.67A12.89,12.89,0,0,0,428.71,160.9Zm-143,6.61h0c.66-1.23,1.33-2.32,2-3.31.29-.39.59-.8.88-1.24a14.51,14.51,0,0,1,4.12-3.93,5.9,5.9,0,0,1,3.23-.94,3.85,3.85,0,0,1,1.23.18,1.84,1.84,0,0,1,.25.09,2.33,2.33,0,0,1,1.35,1.07l.27.41a.35.35,0,0,0,.13.26,1.33,1.33,0,0,0,.07.47,1.73,1.73,0,0,1,.07.48,4.52,4.52,0,0,1-.27,1.61,2.12,2.12,0,0,1-.25.88l0,.06-.68,1.08a9.61,9.61,0,0,1-1.34,1.61l-.4.41a21.26,21.26,0,0,1-3.44,1.88,12.51,12.51,0,0,1-5.17.94h-.81a3.38,3.38,0,0,1-.74-.07,4.27,4.27,0,0,0-.74-.06H285A10.12,10.12,0,0,1,285.67,167.51Zm-81.25-16.16c.77-2.15,3-8.51,5.36-13.81l0,0h0l.05-.13.48-1v.09a25.61,25.61,0,0,1,3.3-5.17c.94-1,1.68-1.55,2.22-1.55,2.68,1.73-3.9,13.32-6.14,17.1q-1.51,2.29-3,4.22c-1.44,1.84-2.51,3.26-3.23,4.24l-.54.81-.18.18C203.07,155.26,203.6,153.66,204.42,151.35Zm58.35,7.06h0q0,.32-.09.66c-.07.33-.11.59-.15.81-.53,1.88-1.45,5-2.48,6.26H260a5.14,5.14,0,0,1-.54-.94,5.23,5.23,0,0,1-.4-2.29v-.41c.06-.34.13-.68.2-1a20.7,20.7,0,0,1,.74-2.64l.54-1.11a2.46,2.46,0,0,1,.56-.81l.07-.06,0,0a1.35,1.35,0,0,1,.35-.19,1.4,1.4,0,0,1,.28-.06H262a.85.85,0,0,1,.3.15l0,0a1.88,1.88,0,0,1,.44,1.32C262.77,158.21,262.78,158.3,262.77,158.41Zm135.6,5.38a16,16,0,0,1-.34,2.09v.27a.24.24,0,0,1-.07.2.25.25,0,0,0-.06.2,1.21,1.21,0,0,1-.14.54,2.36,2.36,0,0,1-.27.67.66.66,0,0,1-.06.27.54.54,0,0,0-.07.27v.14a1.92,1.92,0,0,0-.34.8,1.26,1.26,0,0,1-.34.68v.27c-.54,1.16-1.16,2.46-1.88,3.9a23.48,23.48,0,0,1-2.56,4,15.32,15.32,0,0,1-3.29,3.16,6.71,6.71,0,0,1-4,1.28,2.48,2.48,0,0,1-.54-.06,2,2,0,0,0-.54-.07h-.13a.53.53,0,0,1-.41-.14h-.13l-.4-.27a4.45,4.45,0,0,0-.74-.53,1.72,1.72,0,0,1-.74-.94,8,8,0,0,1-.41-4.17q.27-2.83,3-8.08,5.39-10.23,10.77-10.22h.67l.5.16.3.11a3.36,3.36,0,0,1,2,2.69h0a4.85,4.85,0,0,1,.26,1.46C398.43,162.78,398.41,163.21,398.37,163.79Z"/><path class="cls-1" d="M189.08,121.89a36.47,36.47,0,0,0-.58-3.68l-.09-.5h0c-.09-.37-.18-.72-.28-1.07h0s0-.09-.07-.14c-.07-.24-.14-.48-.22-.72l-.12-.39c-.17-.5-.35-1-.55-1.45h0s0,0,0,0c-.15-.36-.31-.71-.48-1a5.77,5.77,0,0,0-.28-.92h-.14v-.14a2.82,2.82,0,0,1-.54-.81v.14h0c-.18-.28-.36-.54-.55-.8,0,0-.07-.11-.1-.14l-.09-.09c-.15-.2-.31-.39-.46-.57h.15a2.55,2.55,0,0,0-.67-.68,3.94,3.94,0,0,1-.68-.54h0c-.17-.16-.35-.3-.53-.44v-.11a.72.72,0,0,1-.19,0,12.52,12.52,0,0,0-1.74-1.12l0,0a2.53,2.53,0,0,1-.36-.12,2.79,2.79,0,0,1-.73-.33,5.26,5.26,0,0,1-.52-.35l-1.75-.41v0c-.38-.09-.76-.16-1.14-.22l.06-.07c-.45-.08-.92-.15-1.41-.2s-1-.06-1.42-.06a15.2,15.2,0,0,0-2.84.29c-.53.06-1.06.15-1.57.24-5.85,1.13-10.38,6.17-12,8.18-.25-.08-.54-.16-.89-.24a6.67,6.67,0,0,0-1.42-.13,17.72,17.72,0,0,0-5.25,1.07,26.07,26.07,0,0,0-7.66,4.71,57.1,57.1,0,0,0-6.15,5.77c-.35.36-.69.74-1,1.12-1.2,1.34-2.39,2.76-3.59,4.28a154.79,154.79,0,0,0-11,16.42,107.85,107.85,0,0,0-6.32,12.84c-.5,1.22-.94,2.41-1.37,3.59l-.07.18a57.65,57.65,0,0,0-2.17,7c0,.2-.11.41-.16.6,0,0,0,0,0,0a30.64,30.64,0,0,0-.56,12.42l.09.34a19.73,19.73,0,0,0,3.27,8.2,16.51,16.51,0,0,0,4.78,4.71,28,28,0,0,0,6.19,3,29.61,29.61,0,0,0,6.72,1.48,28.94,28.94,0,0,0,6.53-.07c7.93-.86,15.65-4.67,23.16-11.36.28-.26.57-.49.86-.75l.07-.06q11.16-10.33,19.74-29.4h0S190.85,138.64,189.08,121.89ZM175.8,141.4c-.84,2.84-1.83,5.91-3,9.17q-.51,1.35-1.05,2.67a1.08,1.08,0,0,0-.16.39c-.11.27-.22.55-.34.82s-.33.74-.49,1.11l-.54,1.19A82.8,82.8,0,0,1,161.37,172a72.51,72.51,0,0,1-9.32,10.32c-4.7,3.47-8,5.66-11,6.92-.81.29-1.56.55-2.27.78-3,.82-5.92.75-10,.17a23.46,23.46,0,0,1-2.69-.76H126a10.16,10.16,0,0,1-2.48-1.42,9.88,9.88,0,0,1-1-.91l-.12-.11h0c-3.33-3.49-4-9-4.09-12.86a27.6,27.6,0,0,1,.46-4c1.37-6.36,5.32-15.9,5.68-16.76.12-.28.25-.58.37-.84a22.11,22.11,0,0,1,1.35-2.56,11,11,0,0,1,1.21-2.28,42.86,42.86,0,0,1,2.29-3.77q2.28-3.63,5.79-8.48c1.07-1.43,2.24-2.89,3.49-4.37s2.56-2.89,3.9-4.24a42,42,0,0,1,3.74-3.32c1.44-1.11,3.69-2.6,5.27-2.6a81.47,81.47,0,0,0-4.82,8.21h0c-.25.49-.51,1-.76,1.48a93.27,93.27,0,0,0-3.9,9,86.54,86.54,0,0,0-2.82,9A58.37,58.37,0,0,0,138,157a13.94,13.94,0,0,0-.54,2.62,14.2,14.2,0,0,0,.27,5.45,17.72,17.72,0,0,0,1.75,6.06,7.92,7.92,0,0,0,5.38,4.17H146a19.19,19.19,0,0,0,2.43-.67,12.13,12.13,0,0,0,3.49-2,3.25,3.25,0,0,1,1.35-1.35,2.31,2.31,0,0,0,.13-1.34,1.92,1.92,0,0,0-.4-.95v-.13a.4.4,0,0,0-.27-.14l-.14-.13a8.35,8.35,0,0,1-1.61-1.95,14,14,0,0,1-1.48-3.57q-1.75-5.24-.13-14.26c.26-1.34.62-2.91,1.07-4.71s.9-3.36,1.34-4.71c.36-1,.77-2.19,1.22-3.63s1-3.05,1.75-4.84h-.05c.08-.2.16-.4.25-.6l.07-.07.67-1.22h-.23l.33-.79h0a28,28,0,0,1,1.75-3.64v-.26l.13.26a8.31,8.31,0,0,1,.61,3.1,27.93,27.93,0,0,1-.2,4.16l-.09.41H158v.14s0,.11,0,.17c-.08.38-.16.74-.21,1.07l0,.07c0,.3-.08.56-.09.79-.27.32-.21.61.2.86.54.4,3.18-1.48,4.79-5.17a.22.22,0,0,0,.05-.08h0c.09-.22.19-.44.28-.67h0v.13h.14v-.27l.27-.13v-.67h.13l.13-.14v-.27l.14-.13v-1.21h-.1a14.73,14.73,0,0,0,.23-2.16c.34-5.45-1.61-7.26-1.61-7.26l.07-.11a.15.15,0,0,1,.07,0l.48-.72a17.24,17.24,0,0,1,7.64-5.23c.27-.08.54-.16.81-.22a8.46,8.46,0,0,1,.85-.16,0,0,0,0,1,0,0c.18,0,.37-.06.55-.07l.11,0h.23c2.88.06,4.65,2.42,5.52,5.61h-.05a3.61,3.61,0,0,1,.17.46,18.75,18.75,0,0,1,.47,3.17h-.11a12.87,12.87,0,0,1,.17,1.39C179.35,125.27,178.11,133.08,175.8,141.4Z"/></g></g></svg>